<?xml version="1.0" encoding="UTF-8"?>
<!DOCTYPE svg PUBLIC "-//W3C//DTD SVG 1.1//EN" "http://www.w3.org/Graphics/SVG/1.1/DTD/svg11.dtd">
<!-- Creator: CorelDRAW -->
<svg xmlns="http://www.w3.org/2000/svg" xml:space="preserve" width="153px" height="32px" style="shape-rendering:geometricPrecision; text-rendering:geometricPrecision; image-rendering:optimizeQuality; fill-rule:evenodd; clip-rule:evenodd"
viewBox="0 0 10.5383 2.20303"
 xmlns:xlink="http://www.w3.org/1999/xlink">
 <defs>
  <style type="text/css">
   <![CDATA[
    .fil1 {fill:none}
    .fil0 {fill:black}
    .fil2 {fill:#1E1B2B}
    .fil3 {fill:#6D4AFF}
    .fil5 {fill:#6D4AFF;fill-rule:nonzero}
    .fil6 {fill:white;fill-rule:nonzero}
    .fil4 {fill:url(#id0)}
   ]]>
  </style>
  <linearGradient id="id0" gradientUnits="userSpaceOnUse" x1="2.39436" y1="2.32167" x2="0.643841" y2="-0.120832">
   <stop offset="0" style="stop-color:#C2B4FB"/>
   <stop offset="1" style="stop-color:#6D4AFF"/>
  </linearGradient>
 </defs>
 <g id="Layer_x0020_1">
  <metadata id="CorelCorpID_0Corel-Layer"/>
  <g id="_246880544">
   <path id="_246880952" class="fil0" d="M0.29281 0l9.95352 0c0.160594,0 0.291997,0.151081 0.291997,0.335581l0 1.53195c0,0.184501 -0.131403,0.3355 -0.291997,0.3355l-9.95352 0c-0.160594,0 -0.291997,-0.150999 -0.291997,-0.3355l0 -1.53195c0,-0.184501 0.131403,-0.335581 0.291997,-0.335581z"/>
   <path id="_249785000" class="fil1" d="M0.336394 0l2.67611 0 0 2.20303 -2.67611 0c-0.184582,0 -0.335581,-0.150999 -0.335581,-0.3355l0 -1.53195c0,-0.184501 0.150999,-0.335581 0.335581,-0.335581z"/>
   <path id="_249364776" class="fil2" d="M0.343225 0l2.73279 0 0 2.20303 -2.73279 0c-0.18881,0 -0.343225,-0.150999 -0.343225,-0.335581l0 -1.53179c0,-0.184582 0.154415,-0.335663 0.343225,-0.335663z"/>
   <g>
    <path id="_246910088" class="fil3" d="M1.6727 0.941774c-0.0395997,0.0792808 -0.347616,0.346477 -0.44877,0.355178 -0.151487,0.0129289 -0.36705,-0.200194 -0.457714,-0.300129 -0.0661893,-0.0258577 -0.212147,-0.164497 -0.276141,-0.217433 -0.0489508,-0.0404942 -0.0921283,-0.0766787 -0.131647,-0.1114 -0.0443159,-0.0388679 -0.089201,-0.0602534 -0.104895,-0.104325l-0.0506584 -0.00723691c0.026183,0.272726 0.00577327,0.64376 0.00577327,0.9273 0,0.808176 -0.0448851,0.676854 1.16652,0.676854 0.304032,0 0.617089,0.0071556 0.919982,-0.00138233l-0.00243941 -0.877455c-0.00455356,-0.142461 0,-0.290452 0.00130102,-0.433483 0.000650509,-0.0735075 0.0282158,-0.333711 -0.0161814,-0.386809 -0.0986334,0.0568382 -0.210684,0.159049 -0.302731,0.238981 -0.061717,0.053667 -0.260935,0.230849 -0.302405,0.241339z"/>
    <path id="_246887968" class="fil4" d="M2.29516 2.15595c0.226133,0.00195153 0.452022,0.0291103 0.536751,-0.148967 0.039681,-0.0834278 0.0365098,-0.533742 0.0272401,-0.655225l-0.000487882 -0.612047 -0.0254512 -0.69637c-0.0761095,-0.0126849 -0.0349648,-0.0275653 -0.166042,0.0778984l-0.133354 0.110017c-0.0595216,0.0509023 -0.082452,0.0676529 -0.131321,0.111237 -0.05757,0.0512276 -0.0896076,0.0499266 -0.124654,0.118962 0.0443972,0.0530978 0.0168319,0.313301 0.0161814,0.386809 -0.00130102,0.143031 -0.00585458,0.291021 -0.00130102,0.433483l0.00235809 0.848182 0.0275653 -0.665958 -0.0287037 0.691979 0.0012197 0.00325254 0 -0.00325254zm-2.09228 -1.59952l0.0506584 0.00723691c0.0156935,0.044072 0.0605786,0.0654575 0.104895,0.104325 0.0395184,0.0347209 0.0826959,0.0709055 0.131647,0.1114 0.0639938,0.0529352 0.209952,0.191575 0.276141,0.217433 0.0906647,0.0999344 0.306227,0.313057 0.457714,0.300129 0.101154,-0.00870056 0.40917,-0.275897 0.44877,-0.355178 -0.198649,0.0895263 -0.26744,0.000325254 -0.388842,-0.0800939 -0.0765974,-0.0782237 -0.172141,-0.150186 -0.261179,-0.222555 -0.104,-0.0844035 -0.165798,-0.158968 -0.282971,-0.219384 -0.0157748,-0.0416326 -0.369814,-0.324441 -0.369977,-0.324441l-0.148153 -0.0454543c-0.054968,0.142949 0.0065864,0.350136 -0.0187021,0.506584z"/>
   </g>
   <path id="_244335776" class="fil5" d="M7.62591 1.48967l0 -0.789149 0.238493 0 0.143112 0.538377 0.141486 -0.538377 0.239062 0 0 0.789149 -0.147909 0 0 -0.621155 -0.156773 0.621155 -0.153357 0 -0.156203 -0.621155 0 0.621155 -0.147909 0zm1.00552 -0.397217l-0.137176 -0.0248006c0.0153683,-0.0552932 0.0418765,-0.0961127 0.0795247,-0.122702 0.0378108,-0.0265082 0.0936733,-0.039925 0.167913,-0.039925 0.0676529,0 0.117742,0.00813136 0.150837,0.0240688 0.032932,0.0160188 0.056269,0.0361846 0.0696858,0.0608226 0.0133354,0.024638 0.0201658,0.0696858 0.0201658,0.135387l-0.00162627 0.176613c0,0.0501705 0.00235809,0.0872495 0.00731822,0.111156 0.0047975,0.0236623 0.0139859,0.0494387 0.0272401,0.0765974l-0.14978 0c-0.00382174,-0.0100829 -0.00878187,-0.0249633 -0.0144738,-0.0446412 -0.00243941,-0.00902581 -0.00422831,-0.0148804 -0.0053667,-0.0178077 -0.025939,0.0251259 -0.0535044,0.0439093 -0.0828586,0.0565943 -0.0294355,0.012441 -0.0608226,0.0187021 -0.0942425,0.0187021 -0.0587897,0 -0.105301,-0.0159375 -0.139128,-0.0477311 -0.0339891,-0.0319562 -0.050821,-0.0724504 -0.050821,-0.12132 0,-0.0321189 0.00764348,-0.0609852 0.0230931,-0.086355 0.0154496,-0.0252885 0.0371603,-0.0446412 0.0648883,-0.0580579 0.0277279,-0.0133354 0.0679782,-0.0251259 0.120344,-0.0352088 0.0704989,-0.0132541 0.119612,-0.0257764 0.146771,-0.0371603l0 -0.015043c0,-0.0291916 -0.0071556,-0.0497639 -0.0214668,-0.0622862 -0.0143112,-0.0122784 -0.0413886,-0.0185395 -0.0812323,-0.0185395 -0.0269961,0 -0.047975,0.00528538 -0.063018,0.0159375 -0.015043,0.0104895 -0.0271587,0.029029 -0.0365911,0.0556998zm0.202308 0.122702c-0.0192713,0.00642377 -0.0499266,0.0141486 -0.092047,0.0231744 -0.0418765,0.00902581 -0.0692792,0.0178077 -0.0822894,0.0262643 -0.0196779,0.0141486 -0.0295982,0.0317936 -0.0295982,0.0532604 0,0.0213042 0.00788742,0.0395184 0.0237436,0.054968 0.0157748,0.0154496 0.035778,0.0231744 0.0602534,0.0231744 0.0273214,0 0.0532604,-0.00902581 0.0780611,-0.0268335 0.0183769,-0.0135794 0.03033,-0.03033 0.0360219,-0.0501705 0.00406568,-0.0128475 0.00585458,-0.0374856 0.00585458,-0.0736701l0 -0.0301673zm0.271018 -0.374612l0 -0.140022 0.151162 0 0 0.140022 -0.151162 0zm0 0.649126l0 -0.571553 0.151162 0 0 0.571553 -0.151162 0zm0.279475 0l0 -0.789149 0.151162 0 0 0.789149 -0.151162 0z"/>
   <path id="_244332512" class="fil6" d="M4.04242 1.48967l0 -0.789149 0.255569 0c0.0968445,0 0.160025,0.00406568 0.189461,0.0119531 0.0452104,0.0117905 0.0831838,0.0374856 0.113758,0.0771666 0.0304926,0.039681 0.0456982,0.0909899 0.0456982,0.153601 0,0.0485442 -0.00878187,0.0892823 -0.0264269,0.122214 -0.0176451,0.0330946 -0.039925,0.0589524 -0.0670837,0.0778984 -0.0269961,0.0187021 -0.0545614,0.0312244 -0.082452,0.0373229 -0.0380548,0.00748085 -0.0931854,0.0113839 -0.165392,0.0113839l-0.103837 0 0 0.297608 -0.159293 0zm0.159293 -0.65555l0 0.223775 0.0870869 0c0.0628554,0 0.104976,-0.00406568 0.126036,-0.0122784 0.0211415,-0.00829399 0.0377295,-0.0211415 0.0498452,-0.0387866 0.0119531,-0.0176451 0.0179703,-0.0380548 0.0179703,-0.0613918 0,-0.0286224 -0.00845661,-0.052366 -0.0253698,-0.0710681 -0.0166693,-0.0185395 -0.0382174,-0.03033 -0.0639125,-0.0348835 -0.0191087,-0.00374043 -0.0573261,-0.0053667 -0.114652,-0.0053667l-0.077004 0zm0.692873 0.65555l-0.151162 0 0 -0.571553 0.140347 0 0 0.081151c0.0240688,-0.03838 0.0457796,-0.0637499 0.0648883,-0.0758656 0.0192713,-0.0121157 0.0409007,-0.0183769 0.0653761,-0.0183769 0.0345583,0 0.0676529,0.00959501 0.0996092,0.0287037l-0.0469179 0.131728c-0.0252885,-0.016344 -0.0490321,-0.024638 -0.0709055,-0.024638 -0.0213042,0 -0.0391118,0.00569195 -0.0538296,0.0174824 -0.0148804,0.0115465 -0.0262643,0.0326881 -0.0347209,0.0631807 -0.00845661,0.0304926 -0.0126849,0.0944051 -0.0126849,0.191656l0 0.176532zm0.222311 -0.293949c0,-0.0501705 0.0125223,-0.0988773 0.0371603,-0.145877 0.0248006,-0.0468366 0.0598468,-0.0828586 0.10522,-0.107497 0.045373,-0.0248006 0.0961127,-0.0373229 0.152138,-0.0373229 0.086355,0 0.157261,0.0281345 0.212635,0.0843222 0.0552932,0.056269 0.0828586,0.127174 0.0828586,0.21296 0,0.086355 -0.0279719,0.157992 -0.0836717,0.214993 -0.0557811,0.0569195 -0.126036,0.0852167 -0.210684,0.0852167 -0.0525286,0 -0.102374,-0.0117092 -0.149942,-0.0354527 -0.0475685,-0.0236623 -0.083753,-0.0583832 -0.108554,-0.104163 -0.024638,-0.0457796 -0.0371603,-0.101398 -0.0371603,-0.167181zm0.155065 0.00805005c0,0.0567569 0.0134167,0.100178 0.0404129,0.130264 0.0268335,0.0301673 0.0600908,0.0452104 0.0996092,0.0452104 0.0395184,0 0.072613,-0.015043 0.0992026,-0.0452104 0.0268335,-0.030086 0.0402502,-0.0738328 0.0402502,-0.131321 0,-0.0558624 -0.0134167,-0.09904 -0.0402502,-0.129207 -0.0265895,-0.030086 -0.0596842,-0.0452104 -0.0992026,-0.0452104 -0.0395184,0 -0.0727757,0.0151243 -0.0996092,0.0452104 -0.0269961,0.0301673 -0.0404129,0.0736701 -0.0404129,0.130264zm0.788579 -0.285655l0 0.120507 -0.103268 0 0 0.230361c0,0.046674 0.00089445,0.0739141 0.00292729,0.0816389 0.00203284,0.00764348 0.00642377,0.0139046 0.0134167,0.0191087 0.00699297,0.00496013 0.0156122,0.00748085 0.0255325,0.00748085 0.0141486,0 0.0343957,-0.00496013 0.0609852,-0.0144738l0.0129289 0.117173c-0.0352901,0.0151243 -0.0749711,0.0226052 -0.119612,0.0226052 -0.0272401,0 -0.0518781,-0.00455356 -0.0736701,-0.0135794 -0.0218734,-0.00918844 -0.0378921,-0.0211415 -0.0481377,-0.0356154 -0.0103268,-0.0145551 -0.0173198,-0.034233 -0.0213855,-0.0590337 -0.00308992,-0.0174011 -0.00471619,-0.0530978 -0.00471619,-0.106521l0 -0.249145 -0.0694418 0 0 -0.120507 0.0694418 0 0 -0.113758 0.151731 -0.0881439 0 0.201902 0.103268 0zm0.0430962 0.277605c0,-0.0501705 0.0125223,-0.0988773 0.0371603,-0.145877 0.0248006,-0.0468366 0.0598468,-0.0828586 0.10522,-0.107497 0.045373,-0.0248006 0.0961127,-0.0373229 0.152138,-0.0373229 0.086355,0 0.157261,0.0281345 0.212635,0.0843222 0.0552932,0.056269 0.0828586,0.127174 0.0828586,0.21296 0,0.086355 -0.0279719,0.157992 -0.0836717,0.214993 -0.0557811,0.0569195 -0.126036,0.0852167 -0.210684,0.0852167 -0.0525286,0 -0.102374,-0.0117092 -0.149942,-0.0354527 -0.0475685,-0.0236623 -0.083753,-0.0583832 -0.108554,-0.104163 -0.024638,-0.0457796 -0.0371603,-0.101398 -0.0371603,-0.167181zm0.155065 0.00805005c0,0.0567569 0.0134167,0.100178 0.0404129,0.130264 0.0268335,0.0301673 0.0600908,0.0452104 0.0996092,0.0452104 0.0395184,0 0.072613,-0.015043 0.0992026,-0.0452104 0.0268335,-0.030086 0.0402502,-0.0738328 0.0402502,-0.131321 0,-0.0558624 -0.0134167,-0.09904 -0.0402502,-0.129207 -0.0265895,-0.030086 -0.0596842,-0.0452104 -0.0992026,-0.0452104 -0.0395184,0 -0.0727757,0.0151243 -0.0996092,0.0452104 -0.0269961,0.0301673 -0.0404129,0.0736701 -0.0404129,0.130264zm1.04651 0.285899l-0.151162 0 0 -0.291753c0,-0.061717 -0.00333386,-0.101642 -0.00975763,-0.119775 -0.00642377,-0.0180516 -0.0170759,-0.0322002 -0.031631,-0.0422831 -0.0144738,-0.00992026 -0.0319562,-0.015043 -0.052366,-0.015043 -0.0262643,0 -0.0497639,0.0071556 -0.0704989,0.0214668 -0.0208163,0.0145551 -0.0351275,0.0334199 -0.0428523,0.0571635 -0.00772479,0.0236623 -0.0115465,0.067409 -0.0115465,0.131321l0 0.258903 -0.151243 0 0 -0.571553 0.140429 0 0 0.0839156c0.0499266,-0.0646443 0.112782,-0.0970071 0.188485,-0.0970071 0.0332573,0 0.0639125,0.00609852 0.0914778,0.0180516 0.0275653,0.0121157 0.0485442,0.0273214 0.0626928,0.0461048 0.0140673,0.0187021 0.0240688,0.0398437 0.0295168,0.0635872 0.00569195,0.0236623 0.00845661,0.0574887 0.00845661,0.101561l0 0.35534z"/>
  </g>
 </g>
</svg>
